<?xml version="1.0" encoding="utf-8"?>
<svg xmlns="http://www.w3.org/2000/svg">
  <defs>
    
    <symbol id="linkedin" viewBox="0 0 24 24" fill="none">
      <path d="M18.72 3.99997H5.37C5.19793 3.99191 5.02595 4.01786 4.86392 4.07635C4.70189 4.13484 4.55299 4.22471 4.42573 4.34081C4.29848 4.45692 4.19537 4.59699 4.12232 4.75299C4.04927 4.909 4.0077 5.07788 4 5.24997V18.63C4.01008 18.9901 4.15766 19.3328 4.41243 19.5875C4.6672 19.8423 5.00984 19.9899 5.37 20H18.72C19.0701 19.9844 19.4002 19.8322 19.6395 19.5761C19.8788 19.32 20.0082 18.9804 20 18.63V5.24997C20.0029 5.08247 19.9715 4.91616 19.9078 4.76122C19.8441 4.60629 19.7494 4.466 19.6295 4.34895C19.5097 4.23191 19.3672 4.14059 19.2108 4.08058C19.0544 4.02057 18.8874 3.99314 18.72 3.99997ZM9 17.34H6.67V10.21H9V17.34ZM7.89 9.12997C7.72741 9.13564 7.5654 9.10762 7.41416 9.04768C7.26291 8.98774 7.12569 8.89717 7.01113 8.78166C6.89656 8.66615 6.80711 8.5282 6.74841 8.37647C6.6897 8.22474 6.66301 8.06251 6.67 7.89997C6.66281 7.73567 6.69004 7.57169 6.74995 7.41854C6.80986 7.26538 6.90112 7.12644 7.01787 7.01063C7.13463 6.89481 7.2743 6.80468 7.42793 6.74602C7.58157 6.68735 7.74577 6.66145 7.91 6.66997C8.07259 6.66431 8.2346 6.69232 8.38584 6.75226C8.53709 6.8122 8.67431 6.90277 8.78887 7.01828C8.90344 7.13379 8.99289 7.27174 9.05159 7.42347C9.1103 7.5752 9.13699 7.73743 9.13 7.89997C9.13719 8.06427 9.10996 8.22825 9.05005 8.3814C8.99014 8.53456 8.89888 8.6735 8.78213 8.78931C8.66537 8.90513 8.5257 8.99526 8.37207 9.05392C8.21843 9.11259 8.05423 9.13849 7.89 9.12997ZM17.34 17.34H15V13.44C15 12.51 14.67 11.87 13.84 11.87C13.5822 11.8722 13.3313 11.9541 13.1219 12.1045C12.9124 12.2549 12.7546 12.4664 12.67 12.71C12.605 12.8926 12.5778 13.0865 12.59 13.28V17.34H10.29V10.21H12.59V11.21C12.7945 10.8343 13.0988 10.5225 13.4694 10.3089C13.84 10.0954 14.2624 9.98848 14.69 9.99997C16.2 9.99997 17.34 11 17.34 13.13V17.34Z" fill="#000000"/>
    </symbol>
    
    <symbol id="facebook" viewBox="0 0 24 24" fill="#000000">
      <path d="M12 2.03998C6.5 2.03998 2 6.52998 2 12.06C2 17.06 5.66 21.21 10.44 21.96V14.96H7.9V12.06H10.44V9.84998C10.44 7.33998 11.93 5.95998 14.22 5.95998C15.31 5.95998 16.45 6.14998 16.45 6.14998V8.61998H15.19C13.95 8.61998 13.56 9.38998 13.56 10.18V12.06H16.34L15.89 14.96H13.56V21.96C15.9164 21.5878 18.0622 20.3855 19.6099 18.57C21.1576 16.7546 22.0054 14.4456 22 12.06C22 6.52998 17.5 2.03998 12 2.03998Z"/>
    </symbol>
    
    <symbol id="instagram" viewBox="0 0 32 32" fill="#000000">
      <g fill="none" fill-rule="evenodd">
        <path d="m0 0h32v32h-32z"/>
        <path d="m17.0830929.03277248c8.1190907 0 14.7619831 6.64289236 14.7619831 14.76198302v2.3064326c0 8.1190906-6.6429288 14.761983-14.7619831 14.761983h-2.3064325c-8.11909069 0-14.76198306-6.6428924-14.76198306-14.761983v-2.3064326c0-8.11909066 6.64289237-14.76198302 14.76198306-14.76198302zm-.8630324 8.0002641-.2053832-.0002641c-1.7102378 0-3.4204757.05652851-3.4204757.05652851-2.4979736 0-4.52299562 2.02501761-4.52299562 4.52298561 0 0-.05191606 1.4685349-.05624239 3.0447858l-.00028625.2060969c0 1.7648596.05652864 3.590089.05652864 3.5900891 0 2.497968 2.02502202 4.5229856 4.52299562 4.5229856 0 0 1.5990132.0565285 3.2508899.0565285 1.7648634 0 3.6466255-.0565285 3.6466255-.0565285 2.4979736 0 4.4664317-1.9684539 4.4664317-4.4664219 0 0 .0565286-1.8046833.0565286-3.5335605l-.0010281-.4057303c-.0076601-1.5511586-.0555357-3.0148084-.0555357-3.0148084 0-2.4979681-1.9684582-4.46642191-4.4664317-4.46642191 0 0-1.6282521-.05209668-3.2716213-.05626441zm-.2053831 1.43969747c1.4024317 0 3.2005639.04637875 3.2005638.04637875 2.0483524 0 3.3130573 1.2647021 3.3130573 3.31305 0 0 .0463789 1.7674322.0463789 3.1541781 0 1.4176885-.0463789 3.2469355-.0463789 3.2469355 0 2.048348-1.2647049 3.31305-3.3130573 3.31305 0 0-1.5901757.0389711-2.9699093.0454662l-.3697206.0009126c-1.3545375 0-3.0049692-.0463788-3.0049692-.0463788-2.0483172 0-3.36958592-1.321301-3.36958592-3.3695785 0 0-.04637885-1.8359078-.04637885-3.2830941 0-1.3545344.04637885-3.061491.04637885-3.061491 0-2.0483479 1.32130402-3.31305 3.36958592-3.31305 0 0 1.7416035-.04637875 3.1440353-.04637875zm-.0000353 2.46195055c-2.2632951 0-4.0980441 1.8347448-4.0980441 4.098035s1.8347489 4.098035 4.0980441 4.098035 4.0980441-1.8347448 4.0980441-4.098035c0-2.2632901-1.8347489-4.098035-4.0980441-4.098035zm0 1.4313625c1.4727754 0 2.6666784 1.1939004 2.6666784 2.6666725s-1.193903 2.6666726-2.6666784 2.6666726c-1.4727401 0-2.6666784-1.1939005-2.6666784-2.6666726s1.1939031-2.6666725 2.6666784-2.6666725zm4.2941322-2.5685935c-.5468547 0-.9902027.4455321-.9902027.9950991 0 .5495671.443348.9950639.9902027.9950639.5468546 0 .9901674-.4454968.9901674-.9950639 0-.5496023-.4433128-.9950991-.9901674-.9950991z" fill="#202327" fill-rule="nonzero"/>
      </g>
    </symbol>
    
    <symbol id="website" viewBox="0 0 512 512" fill="#000000">
      <g>
        <path d="M157.114,188.969h28.438c3.269-13.719,7.51-26.333,12.545-37.485c-9.62,5.348-18.555,12.064-26.552,20.061   C166.14,176.95,161.323,182.786,157.114,188.969z"/>
        <path d="M157.114,323.031c4.21,6.183,9.026,12.019,14.431,17.424c7.997,7.997,16.932,14.713,26.552,20.061   c-5.036-11.152-9.276-23.766-12.545-37.485H157.114z"/>
        <path d="M354.886,188.969c-4.21-6.183-9.026-12.019-14.431-17.424c-7.997-7.997-16.932-14.713-26.552-20.061   c5.036,11.152,9.276,23.766,12.545,37.485H354.886z"/>
        <path d="M278.452,162.043c-9.626-19.252-19.283-25.48-22.452-25.48s-12.826,6.228-22.452,25.48   c-3.987,7.975-7.409,17.059-10.208,26.926h65.32C285.86,179.102,282.439,170.017,278.452,162.043z"/>
        <path d="M233.548,349.957c9.626,19.252,19.283,25.48,22.452,25.48s12.826-6.228,22.452-25.48   c3.987-7.975,7.409-17.059,10.208-26.926h-65.32C226.14,332.898,229.561,341.983,233.548,349.957z"/>
        <path d="M178,256c0-10.428,0.516-20.614,1.492-30.469h-39.021c-2.573,9.825-3.909,20.043-3.909,30.469s1.335,20.644,3.909,30.469   h39.021C178.516,276.614,178,266.428,178,256z"/>
        <path d="M334,256c0,10.428-0.516,20.614-1.492,30.469h39.021c2.573-9.825,3.909-20.043,3.909-30.469s-1.335-20.644-3.909-30.469   h-39.021C333.484,235.386,334,245.572,334,256z"/>
        <path d="M256,0C114.615,0,0,114.615,0,256s114.615,256,256,256s256-114.615,256-256S397.385,0,256,0z M256,412   c-86.156,0-156-69.844-156-156s69.844-156,156-156c86.156,0,156,69.844,156,156S342.156,412,256,412z"/>
        <path d="M216.277,225.531c-1.125,9.901-1.714,20.127-1.714,30.469s0.589,20.568,1.714,30.469h79.447   c1.125-9.901,1.714-20.127,1.714-30.469s-0.589-20.568-1.714-30.469H216.277z"/>
        <path d="M313.903,360.516c9.62-5.348,18.555-12.064,26.552-20.061c5.405-5.405,10.221-11.241,14.431-17.424h-28.438   C323.179,336.75,318.939,349.364,313.903,360.516z"/>
      </g>
    </symbol>

  </defs>
</svg>